# xmcd
#
# Track frame offsets:
#	150
#	17838
#	32679
#	48763
#	59139
#	71053
#	82287
#	94173
#	114153
#	130114
#	145418
#	162535
#	176290
#	190885
#	206592
#	217292
#	234104
#	248773
#	259134
#	268868
#
# Disc length: 3733 seconds
#
# Revision: 1
# Processed by: cddbd v1.5.2PL0 Copyright (c) Steve Scherf et al.
# Submitted via: audiograbber 1.83.01
#
DISCID=2c0e9314
DTITLE=ZZZ - Ein Kessel Buntes 3 - CD 2
DYEAR=1900
DGENRE=
TTITLE0=Beata Karda - Mein Onkel Janos
TTITLE1=Judit Szücs - Zum Teufel mit Napoleon
TTITLE2=Ljubka Dimitrovska - Cibu-Cuba
TTITLE3=Vaclav Neckar - Krokodil Theophil
TTITLE4=Jiri Korn - Yvetta
TTITLE5=Pavel Novak - Tausend Farben wünsch ich mir
TTITLE6=Peter Maté - Heut sieht alles anders aus
TTITLE7=Zsuzsa Koncz - Endlich, endlich
TTITLE8=Karel Gott - Fällt ein Stern auf's Meer
TTITLE9=Helena Vondrackova - Unter der Asche meiner Liebe ist noch Glut
TTITLE10=Monika Hauff and Klaus-Dieter Henkler - Nikolaja-Nikolai
TTITLE11=Rote Gitarren - weißes Boot
TTITLE12=Mira Kubazinska and Breakout - Aber ich sag' dir nichts davon
TTITLE13=Gojko Mitic - Löscht das Feuer
TTITLE14=Hana Zagorova - Liebe nimmt, wer Liebe gibt
TTITLE15=Maryla Rodowicz - der Teufel sitzt vorm Paradies
TTITLE16=Halina Frackowiak and Horst Krüger Band - Stundenlang
TTITLE17=Viktor Sodoma and Shut Up - He he, warte
TTITLE18=Peter Albert and Valerie Cizmarova - Wir lieben alles schöne auf der Wel
TTITLE18=t
TTITLE19=Vari-Zwillinge - Aber er, aber er
EXTD=
EXTT0=
EXTT1=
EXTT2=
EXTT3=
EXTT4=
EXTT5=
EXTT6=
EXTT7=
EXTT8=
EXTT9=
EXTT10=
EXTT11=
EXTT12=
EXTT13=
EXTT14=
EXTT15=
EXTT16=
EXTT17=
EXTT18=
EXTT19=
PLAYORDER=
